<?xml version="1.0" standalone="no"?>
<!DOCTYPE svg PUBLIC "-//W3C//DTD SVG 20010904//EN"
 "http://www.w3.org/TR/2001/REC-SVG-20010904/DTD/svg10.dtd">
<svg version="1.0" xmlns="http://www.w3.org/2000/svg"
 width="512.000000pt" height="512.000000pt" viewBox="0 0 512.000000 512.000000"
 preserveAspectRatio="xMidYMid meet">
<metadata>
Created by potrace 1.14, written by Peter Selinger 2001-2017
</metadata>
<g transform="translate(0.000000,512.000000) scale(0.100000,-0.100000)"
fill="#000000" stroke="none">
<path d="M2325 4949 c-254 -24 -579 -117 -819 -234 -232 -113 -504 -310 -672
-487 -626 -660 -832 -1573 -548 -2427 239 -718 797 -1276 1514 -1515 1022
-340 2128 31 2738 917 560 814 560 1900 0 2714 -497 722 -1337 1114 -2213
1032z m1255 -974 c282 -55 549 -196 746 -393 194 -194 314 -404 387 -681 29
-112 31 -124 31 -331 1 -176 -2 -229 -18 -295 -47 -203 -108 -349 -209 -503
-218 -331 -546 -549 -942 -628 -135 -27 -405 -25 -542 4 -227 49 -420 139
-622 289 -13 10 -29 2 -96 -52 -258 -207 -600 -300 -925 -251 -450 68 -827
385 -963 811 -47 149 -52 182 -52 375 0 193 5 226 52 375 213 664 968 1004
1614 726 l89 -39 49 62 c245 307 570 491 961 546 93 13 340 4 440 -15z"/>
<path d="M3195 3784 c-249 -36 -435 -108 -605 -235 -137 -101 -229 -201 -323
-351 l-55 -88 -46 36 c-57 43 -174 106 -246 133 -135 49 -178 56 -360 55 -161
0 -182 -3 -265 -28 -179 -54 -307 -128 -439 -255 -155 -150 -251 -326 -297
-546 -17 -77 -17 -293 0 -370 46 -220 142 -396 297 -546 132 -127 260 -201
439 -255 84 -26 103 -28 270 -28 167 0 186 2 270 28 218 66 393 184 547 369
l23 28 55 -52 c176 -167 402 -283 640 -330 98 -19 348 -17 448 4 513 109 889
497 978 1011 24 133 15 358 -19 487 -123 472 -482 816 -954 914 -76 16 -298
28 -358 19z"/>
</g>
</svg>
